<svg id="Layer_1" data-name="Layer 1" xmlns="http://www.w3.org/2000/svg" viewBox="0 0 1308.61 337.96"><defs><style>.cls-1{fill:#000;}.cls-2{fill:#6a00db;}</style></defs><path class="cls-1" d="M290.28,214.53c-.53.13-3.38.42-18.42.42h0c-21.47,0-53.83-.59-54.15-.6l-1.64,0-.47,1.57a100.72,100.72,0,0,1-13.79,28.71c-9.64,14-24.55,22-40.89,22a47.91,47.91,0,0,1-37-17.44l-.34-.4C106,227.84,96.34,199.52,96.25,169c.09-30.54,9.79-58.86,27.32-79.74l.33-.4a48,48,0,0,1,37-17.44c16.34,0,31.25,8,40.89,22a100.94,100.94,0,0,1,13.8,28.72c.5,1.68,1.22,1.69,6.75,1.69h.08c5.1,0,13.89-.13,23.19-.27,11.29-.17,24.07-.36,33.1-.36,9.27,0,11.18.21,11.57.3a2,2,0,0,1-1.3-1.31l4.11-1.29a105.29,105.29,0,0,0-40.39-56.23c-20.66-14.34-41.84-17.33-69.3-17.5-5.93,0-11.87-.22-18.15-.42-6.92-.21-14.07-.44-21.17-.44-14.77,0-34,.87-51.78,7.61a112.14,112.14,0,0,0-50,38.38C27,113.15,18.5,140.4,18.34,169c.16,28.57,8.68,55.82,24,76.74a112.19,112.19,0,0,0,50,38.37c17.78,6.75,37,7.61,51.78,7.61,7.09,0,14.25-.22,21.17-.44,6.28-.2,12.22-.38,18.15-.42,27.46-.17,48.64-3.15,69.3-17.5a105.25,105.25,0,0,0,40.39-56.23L289,215.83A2,2,0,0,1,290.28,214.53Z" style="fill:#fff;"/><path class="cls-2" d="M300.32,36.58A36.59,36.59,0,0,0,263.74,0H120.88A36.57,36.57,0,0,0,84.32,36.58V52.45c-4.8.93-6.25,1.47-11.76,3.55a109.4,109.4,0,0,0-49,37.64C7.92,115,.13,142.05,0,169.11c.13,27.07,7.92,54.13,23.56,75.47a109.4,109.4,0,0,0,49,37.64,62.88,62.88,0,0,0,11.76,3.51v15.65A36.57,36.57,0,0,0,120.88,338H263.74a36.58,36.58,0,0,0,36.58-36.58ZM121.91,250.22c.11.13.22.28.35.41,22.13,26.14,61.69,23.73,81.32-4.67a103.17,103.17,0,0,0,14.09-29.33h73.38a102.6,102.6,0,0,1-39.56,55.08c-21.21,14.73-43.51,17-68.08,17.12C154,289,121.46,293,93.08,282.22a109.53,109.53,0,0,1-49-37.64c-15.61-21.34-23.4-48.4-23.55-75.47.15-27.06,7.94-54.13,23.55-75.47A109.53,109.53,0,0,1,93.08,56c28.38-10.76,60.89-6.78,90.33-6.61,24.57.15,46.87,2.39,68.08,17.12a102.64,102.64,0,0,1,39.41,54.62c-21.63-.15-73.06,1-73.23.46a103.17,103.17,0,0,0-14.09-29.33c-19.63-28.4-59.19-30.81-81.32-4.67-.13.13-.24.28-.35.41-18.71,22.29-27.73,51.66-27.82,81.11C94.18,198.57,103.2,227.94,121.91,250.22Z"/><path class="cls-1" d="M349.07,241.15a16.56,16.56,0,0,1,5.15-3.71,14.65,14.65,0,0,1,6.24-1.35,15,15,0,0,1,5.87,1,16.34,16.34,0,0,1,4.3,2.75,3,3,0,0,0,2.08.71,2.94,2.94,0,0,0,1.83-.79,2.3,2.3,0,0,0,.76-1.77,4.3,4.3,0,0,0-.08-.87,2.1,2.1,0,0,0-.34-.73,3.34,3.34,0,0,0-.7-.71,21.55,21.55,0,0,0-6.27-3.71,22,22,0,0,0-7.45-1.12,20.88,20.88,0,0,0-8.55,1.74,21.57,21.57,0,0,0-6.89,4.81,22.26,22.26,0,0,0-4.61,7.14,23.19,23.19,0,0,0-1.66,8.79,23.63,23.63,0,0,0,1.66,8.89,22.18,22.18,0,0,0,4.61,7.17,21.72,21.72,0,0,0,22.72,5.25,22.53,22.53,0,0,0,6.49-3.65,3,3,0,0,0,.68-1,2.76,2.76,0,0,0,.22-1.09,2.69,2.69,0,0,0-.67-1.94,2.56,2.56,0,0,0-1.66-.79,3,3,0,0,0-2,.65,21,21,0,0,1-4.92,2.73,15.44,15.44,0,0,1-11.66-.34,16,16,0,0,1-5.15-3.69,17.14,17.14,0,0,1-3.46-5.47,18.21,18.21,0,0,1-1.23-6.73,17.9,17.9,0,0,1,1.23-6.65A17.34,17.34,0,0,1,349.07,241.15Z"/><path class="cls-1" d="M403.58,246.29a17.12,17.12,0,0,0-16,0,14.53,14.53,0,0,0-5.48,5.52,17.38,17.38,0,0,0,0,16.19,14.43,14.43,0,0,0,5.48,5.51,17.16,17.16,0,0,0,16.08,0,14.28,14.28,0,0,0,5.45-5.51,17.5,17.5,0,0,0,0-16.19A14.53,14.53,0,0,0,403.58,246.29Zm.71,19.1a9.52,9.52,0,0,1-3.52,3.71,10.66,10.66,0,0,1-10.35,0,9.79,9.79,0,0,1-3.54-3.71,12.24,12.24,0,0,1,0-10.94,9.66,9.66,0,0,1,3.54-3.74,10.59,10.59,0,0,1,10.35,0,9.4,9.4,0,0,1,3.52,3.74,12.5,12.5,0,0,1,0,10.94Z"/><path class="cls-1" d="M441.84,245.9a14.41,14.41,0,0,0-6.94-1.66,13.75,13.75,0,0,0-6.69,1.63,12.74,12.74,0,0,0-2.87,2.17v-.65a2.7,2.7,0,0,0-2.87-2.86,2.85,2.85,0,0,0-2.05.78,2.78,2.78,0,0,0-.81,2.08v25.08a2.87,2.87,0,1,0,5.73,0V256.61a6.26,6.26,0,0,1,1.12-3.68,8,8,0,0,1,3-2.56,9.5,9.5,0,0,1,4.27-1,10.36,10.36,0,0,1,4.59,1,7.52,7.52,0,0,1,3.17,3,10.25,10.25,0,0,1,1.18,5.23v13.83a2.79,2.79,0,0,0,2.87,2.86,2.79,2.79,0,0,0,2.05-.81,2.76,2.76,0,0,0,.82-2V258.64a16.13,16.13,0,0,0-1.77-7.88A12,12,0,0,0,441.84,245.9Z"/><path class="cls-1" d="M480.18,245.9a14.38,14.38,0,0,0-6.94-1.66,13.8,13.8,0,0,0-6.69,1.63,13,13,0,0,0-2.87,2.17v-.65a2.68,2.68,0,0,0-2.86-2.86,2.87,2.87,0,0,0-2.06.78,2.78,2.78,0,0,0-.81,2.08v25.08a2.93,2.93,0,0,0,4.95,2,2.85,2.85,0,0,0,.78-2V256.61a6.26,6.26,0,0,1,1.13-3.68,8,8,0,0,1,3-2.56,9.54,9.54,0,0,1,4.28-1,10.31,10.31,0,0,1,4.58,1,7.49,7.49,0,0,1,3.18,3,10.36,10.36,0,0,1,1.18,5.23v13.83a2.87,2.87,0,1,0,5.73,0V258.64a16.13,16.13,0,0,0-1.77-7.88A12,12,0,0,0,480.18,245.9Z"/><path class="cls-1" d="M517.43,246.24a14.11,14.11,0,0,0-7.53-1.94,15.44,15.44,0,0,0-7.87,2,14.25,14.25,0,0,0-5.37,5.52,16.45,16.45,0,0,0-1.94,8.12,15.67,15.67,0,0,0,2,8.07,14.61,14.61,0,0,0,5.68,5.51,17.19,17.19,0,0,0,13.72,1,15.53,15.53,0,0,0,4.75-2.48,2,2,0,0,0,.9-1.74,2.67,2.67,0,0,0-1-1.85,2.39,2.39,0,0,0-1.71-.59,3.22,3.22,0,0,0-1.83.64,12.1,12.1,0,0,1-6.52,2.14,11.26,11.26,0,0,1-5.68-1.41A9.78,9.78,0,0,1,500,261.9h21.3a2.57,2.57,0,0,0,1.86-.7,2.39,2.39,0,0,0,.73-1.78,17.79,17.79,0,0,0-1.66-7.84A12.63,12.63,0,0,0,517.43,246.24Zm-13,4.3a10.18,10.18,0,0,1,5.48-1.41,8.21,8.21,0,0,1,7.81,4.81,11.33,11.33,0,0,1,.94,3.46H500a11.86,11.86,0,0,1,.93-3A9.08,9.08,0,0,1,504.42,250.54Z"/><path class="cls-1" d="M549.82,245.56a14.43,14.43,0,0,0-6.07-1.26,15.44,15.44,0,0,0-7.87,2,14.34,14.34,0,0,0-5.4,5.55,16.27,16.27,0,0,0-2,8.09,15.77,15.77,0,0,0,2,8,14.71,14.71,0,0,0,5.51,5.56,15.56,15.56,0,0,0,8,2.06,14.29,14.29,0,0,0,10.12-3.77,2.1,2.1,0,0,0,.67-1.78,2.64,2.64,0,0,0-1.07-1.76,2.17,2.17,0,0,0-1.68-.54,3.43,3.43,0,0,0-1.86.82,8.12,8.12,0,0,1-2.72,1.48,11,11,0,0,1-3.46.48,9.88,9.88,0,0,1-5.23-1.37,9.74,9.74,0,0,1-3.52-3.74,11.3,11.3,0,0,1-1.26-5.4,11.73,11.73,0,0,1,1.24-5.56,9.06,9.06,0,0,1,3.43-3.69,9.59,9.59,0,0,1,5.06-1.32,9.06,9.06,0,0,1,6.86,2.93,3.41,3.41,0,0,0,1.74,1,2.11,2.11,0,0,0,1.74-.37,2.92,2.92,0,0,0,1.24-1.69,2,2,0,0,0-.56-1.85A14.81,14.81,0,0,0,549.82,245.56Z"/><path class="cls-1" d="M577,269.66h-1.91a3.77,3.77,0,0,1-3-1.52,5.74,5.74,0,0,1-1.24-3.77V250.48h4.78a2.72,2.72,0,0,0,1.91-.67,2.19,2.19,0,0,0,.73-1.69,2.34,2.34,0,0,0-.73-1.8,2.72,2.72,0,0,0-1.91-.67h-4.78v-8.1a2.86,2.86,0,0,0-4.84-2,2.75,2.75,0,0,0-.79,2v8.1h-2.58a2.68,2.68,0,0,0-1.91.67,2.34,2.34,0,0,0-.73,1.8,2.19,2.19,0,0,0,.73,1.69,2.68,2.68,0,0,0,1.91.67h2.58v13.89a11.88,11.88,0,0,0,1.3,5.57,10.07,10.07,0,0,0,3.54,3.91,9.27,9.27,0,0,0,5.06,1.43h1a3.53,3.53,0,0,0,2.39-.79,2.52,2.52,0,0,0,.93-2,2.93,2.93,0,0,0-.7-2A2.23,2.23,0,0,0,577,269.66Z"/><path class="cls-1" d="M589.85,232.1a3.71,3.71,0,0,0,0,7.42,3.56,3.56,0,0,0,2.61-1.09,3.67,3.67,0,0,0,0-5.24A3.56,3.56,0,0,0,589.85,232.1Z"/><path class="cls-1" d="M589.85,244.53a2.83,2.83,0,0,0-2.05.78,2.75,2.75,0,0,0-.82,2.08v25a2.92,2.92,0,0,0,4.95,2,2.83,2.83,0,0,0,.78-2v-25a2.68,2.68,0,0,0-2.86-2.86Z"/><path class="cls-1" d="M625.63,245.9a14.38,14.38,0,0,0-6.94-1.66,13.77,13.77,0,0,0-6.69,1.63,12.71,12.71,0,0,0-2.87,2.18v-.66a2.7,2.7,0,0,0-2.87-2.86,2.85,2.85,0,0,0-2,.78,2.79,2.79,0,0,0-.82,2.08v25.08a2.79,2.79,0,0,0,2.87,2.86,2.76,2.76,0,0,0,2.08-.81,2.81,2.81,0,0,0,.79-2V256.61a6.19,6.19,0,0,1,1.13-3.68,8,8,0,0,1,3-2.56,9.54,9.54,0,0,1,4.28-1,10.24,10.24,0,0,1,4.57,1,7.46,7.46,0,0,1,3.19,3,10.36,10.36,0,0,1,1.18,5.23v13.83a2.91,2.91,0,0,0,4.92,2,2.83,2.83,0,0,0,.81-2V258.64a16.13,16.13,0,0,0-1.77-7.88A12,12,0,0,0,625.63,245.9Z"/><path class="cls-1" d="M663.67,246.29a17.12,17.12,0,0,0-16,0,14.55,14.55,0,0,0-5.49,5.52,16.15,16.15,0,0,0-2,8.12A17.09,17.09,0,0,0,642,268a14.11,14.11,0,0,0,5.09,5.51,13.91,13.91,0,0,0,7.45,2,12,12,0,0,0,6.86-2,13.66,13.66,0,0,0,4.22-4.77v2.94a13,13,0,0,1-1.35,6.19,9.31,9.31,0,0,1-3.63,3.82,9.94,9.94,0,0,1-5,1.29,12.15,12.15,0,0,1-5.22-1.07,10.31,10.31,0,0,1-3.82-3,2.85,2.85,0,0,0-1.78-1.13,2.71,2.71,0,0,0-2.11.45,2.53,2.53,0,0,0-1.09,1.63,2.42,2.42,0,0,0,.53,2,15.73,15.73,0,0,0,5.91,4.61,17.9,17.9,0,0,0,7.47,1.57,15.3,15.3,0,0,0,8.13-2.14,15,15,0,0,0,5.48-5.75,16.72,16.72,0,0,0,2-8.08V259.93a16.16,16.16,0,0,0-2-8.12A14.6,14.6,0,0,0,663.67,246.29Zm-2.81,22.81a10.66,10.66,0,0,1-10.35,0,9.64,9.64,0,0,1-3.54-3.71,12.24,12.24,0,0,1,0-10.94,9.52,9.52,0,0,1,3.54-3.74,10.59,10.59,0,0,1,10.35,0,9.31,9.31,0,0,1,3.51,3.74,12.41,12.41,0,0,1,0,10.94A9.43,9.43,0,0,1,660.86,269.1Z"/><path class="cls-1" d="M720.46,251.55a10.35,10.35,0,0,0,4.07-3.51,8.76,8.76,0,0,0,1.49-5,11.15,11.15,0,0,0-1.66-6.07,11.37,11.37,0,0,0-4.55-4.13,14.53,14.53,0,0,0-6.72-1.49H699.65a2.91,2.91,0,0,0-2.08.81,2.82,2.82,0,0,0-.84,2.11v38.07a2.87,2.87,0,0,0,2.92,2.92h14.62a15.89,15.89,0,0,0,7.48-1.71A12.61,12.61,0,0,0,728.66,262a10.23,10.23,0,0,0-2.25-6.91A10.89,10.89,0,0,0,720.46,251.55Zm-17.88-14.78h10.51a8.51,8.51,0,0,1,5.26,1.54,5.56,5.56,0,0,1,2,4.75,5.64,5.64,0,0,1-2,4.78,8.4,8.4,0,0,1-5.26,1.58H702.58Zm19.34,29.57a7.12,7.12,0,0,1-3.09,2.64,10.91,10.91,0,0,1-4.56.9H702.58V254.82h11.69a12,12,0,0,1,4.56.81,7,7,0,0,1,3.09,2.39,6.7,6.7,0,0,1,1.12,4A7.81,7.81,0,0,1,721.92,266.34Z"/><path class="cls-1" d="M751.88,244.19a12.43,12.43,0,0,0-6.18,1.57,12.14,12.14,0,0,0-3.26,2.76v-1.18a2.49,2.49,0,0,0-2.81-2.81,2.81,2.81,0,0,0-2.09.73,2.85,2.85,0,0,0-.73,2.08v25.13a2.83,2.83,0,0,0,.73,2.11,2.89,2.89,0,0,0,2.09.7,2.78,2.78,0,0,0,2.1-.73,2.88,2.88,0,0,0,.71-2.08V256.05a5.85,5.85,0,0,1,1.65-4.27,8.89,8.89,0,0,1,4.53-2.31,16,16,0,0,1,6.47.11,3.12,3.12,0,0,0,1.35.06,2.19,2.19,0,0,0,1.09-.53,2.15,2.15,0,0,0,.65-1.21,2.31,2.31,0,0,0-1.26-2.61A9.28,9.28,0,0,0,751.88,244.19Z"/><path class="cls-1" d="M783.71,246.35a16.19,16.19,0,0,0-15.77,0,15.12,15.12,0,0,0-5.57,5.6,15.6,15.6,0,0,0-2,8,16.68,16.68,0,0,0,1.88,8,14.6,14.6,0,0,0,5.15,5.56,14.2,14.2,0,0,0,14.73,0,14.22,14.22,0,0,0,3.48-3.22v2.24a2.76,2.76,0,0,0,.82,2,2.87,2.87,0,0,0,4.92-2V259.93a15.7,15.7,0,0,0-2-8A15.26,15.26,0,0,0,783.71,246.35Zm.78,19a9.81,9.81,0,0,1-3.54,3.77,10.18,10.18,0,0,1-10.2,0,10,10,0,0,1-3.6-3.77,10.9,10.9,0,0,1-1.32-5.37,11.08,11.08,0,0,1,1.32-5.43,9.93,9.93,0,0,1,3.6-3.76,10.11,10.11,0,0,1,10.2,0,9.78,9.78,0,0,1,3.54,3.76,11.18,11.18,0,0,1,1.3,5.43A11,11,0,0,1,784.49,265.3Z"/><path class="cls-1" d="M822.08,245.9a14.45,14.45,0,0,0-7-1.66,13.73,13.73,0,0,0-6.68,1.63,12.28,12.28,0,0,0-2.87,2.18v-.66a2.93,2.93,0,0,0-4.92-2.08,2.75,2.75,0,0,0-.82,2.08v25.08a2.76,2.76,0,0,0,.82,2,3,3,0,0,0,4.13,0,2.85,2.85,0,0,0,.79-2V256.61a6.26,6.26,0,0,1,1.12-3.68,8.05,8.05,0,0,1,3-2.56,9.5,9.5,0,0,1,4.27-1,10.28,10.28,0,0,1,4.58,1,7.43,7.43,0,0,1,3.18,3,10.25,10.25,0,0,1,1.18,5.23v13.83a2.79,2.79,0,0,0,2.87,2.86,2.79,2.79,0,0,0,2.87-2.86V258.64a16,16,0,0,0-1.78-7.88A12,12,0,0,0,822.08,245.9Z"/><path class="cls-1" d="M864.72,231.37a2.81,2.81,0,0,0-2.05.79,2.72,2.72,0,0,0-.82,2.08v15.18a14.12,14.12,0,0,0-18.21-3.07,14.56,14.56,0,0,0-5.15,5.57,16.61,16.61,0,0,0-1.88,8,15.63,15.63,0,0,0,2,8,15.53,15.53,0,0,0,26.88,0,15.63,15.63,0,0,0,2.05-8V234.24a2.71,2.71,0,0,0-2.87-2.87Zm-3.93,33.9a9.85,9.85,0,0,1-3.55,3.8,10.18,10.18,0,0,1-10.2,0,9.9,9.9,0,0,1-3.6-3.8,11.07,11.07,0,0,1-1.32-5.4,10.84,10.84,0,0,1,1.32-5.39,10,10,0,0,1,3.6-3.74,10.11,10.11,0,0,1,10.2,0,9.9,9.9,0,0,1,3.55,3.74,11,11,0,0,1,1.29,5.39A11.28,11.28,0,0,1,860.79,265.27Z"/><path class="cls-1" d="M896.4,259.31a25.07,25.07,0,0,0-6.66-2.13,28,28,0,0,1-4.61-1.27,4.54,4.54,0,0,1-2.11-1.46,3.32,3.32,0,0,1-.53-1.83,2.66,2.66,0,0,1,1.71-2.47,9.31,9.31,0,0,1,4.19-.85,12.69,12.69,0,0,1,3.77.51,7.58,7.58,0,0,1,3,1.85,4,4,0,0,0,2.08,1,2.77,2.77,0,0,0,2.14-.39,2.2,2.2,0,0,0,1-1.66,2.61,2.61,0,0,0-.73-1.89,11.34,11.34,0,0,0-4.55-3.26,17.16,17.16,0,0,0-6.58-1.18,16.53,16.53,0,0,0-5.52.93,10.16,10.16,0,0,0-4.32,2.81,6.84,6.84,0,0,0-1.69,4.75,7.05,7.05,0,0,0,2.56,5.51c1.7,1.5,4.45,2.63,8.23,3.37,2.93.53,4.94,1.2,6.05,2a3.42,3.42,0,0,1,1.6,2.92,3.32,3.32,0,0,1-1.77,2.76,9.51,9.51,0,0,1-5,1.06,11.48,11.48,0,0,1-4.69-.92,9,9,0,0,1-3.07-2,3,3,0,0,0-1.88-1,2.87,2.87,0,0,0-2.22.76,2.7,2.7,0,0,0-1.1,1.88,2.47,2.47,0,0,0,.71,2.05,13.91,13.91,0,0,0,5.2,3.07,21.38,21.38,0,0,0,7.28,1.21,15.9,15.9,0,0,0,6.66-1.24,9.51,9.51,0,0,0,4.05-3.32,8.25,8.25,0,0,0,1.38-4.66,7.35,7.35,0,0,0-1.07-4A8.91,8.91,0,0,0,896.4,259.31Z"/><path class="cls-1" d="M946.53,246.35a15.56,15.56,0,0,0-21.34,5.6,15.6,15.6,0,0,0-2.05,8,16.68,16.68,0,0,0,1.88,8,14.6,14.6,0,0,0,5.15,5.56,14.2,14.2,0,0,0,14.73,0,14.22,14.22,0,0,0,3.48-3.22v2.24a2.76,2.76,0,0,0,.82,2,3,3,0,0,0,4.1,0,2.76,2.76,0,0,0,.82-2V259.93a15.6,15.6,0,0,0-2-8A15.26,15.26,0,0,0,946.53,246.35Zm.79,19a9.91,9.91,0,0,1-3.55,3.77,10.18,10.18,0,0,1-10.2,0,10,10,0,0,1-3.6-3.77,10.9,10.9,0,0,1-1.32-5.37A11.08,11.08,0,0,1,930,254.5a9.93,9.93,0,0,1,3.6-3.76,10.11,10.11,0,0,1,10.2,0,9.88,9.88,0,0,1,3.55,3.76,11.29,11.29,0,0,1,1.29,5.43A11.1,11.1,0,0,1,947.32,265.3Z"/><path class="cls-1" d="M984.9,245.9a14.45,14.45,0,0,0-6.95-1.66,13.8,13.8,0,0,0-6.69,1.63,12.71,12.71,0,0,0-2.87,2.18v-.66a2.68,2.68,0,0,0-2.86-2.86,2.87,2.87,0,0,0-2.06.78,2.78,2.78,0,0,0-.81,2.08v25.08a2.93,2.93,0,0,0,5,2,2.85,2.85,0,0,0,.78-2V256.61a6.26,6.26,0,0,1,1.13-3.68,8,8,0,0,1,3-2.56,9.47,9.47,0,0,1,4.27-1,10.31,10.31,0,0,1,4.58,1,7.49,7.49,0,0,1,3.18,3,10.25,10.25,0,0,1,1.18,5.23v13.83a2.79,2.79,0,0,0,2.87,2.86,2.79,2.79,0,0,0,2.87-2.86V258.64a16.13,16.13,0,0,0-1.78-7.88A12,12,0,0,0,984.9,245.9Z"/><path class="cls-1" d="M1027.54,231.37a2.81,2.81,0,0,0-2,.79,2.75,2.75,0,0,0-.81,2.08v15.18a13.87,13.87,0,0,0-10.85-5.12,13.63,13.63,0,0,0-7.37,2,14.46,14.46,0,0,0-5.14,5.57,16.5,16.5,0,0,0-1.89,8,15.73,15.73,0,0,0,2.05,8,15.53,15.53,0,0,0,26.88,0,15.63,15.63,0,0,0,2.05-8V234.24a2.71,2.71,0,0,0-2.87-2.87Zm-3.93,33.9a9.9,9.9,0,0,1-3.54,3.8,9.85,9.85,0,0,1-13.8-3.8,11,11,0,0,1-1.33-5.4,10.74,10.74,0,0,1,1.33-5.39,9.85,9.85,0,0,1,3.59-3.74,10.13,10.13,0,0,1,10.21,0,10,10,0,0,1,3.54,3.74,11,11,0,0,1,1.29,5.39A11.28,11.28,0,0,1,1023.61,265.27Z"/><path class="cls-1" d="M1065.86,241.15a16.56,16.56,0,0,1,5.15-3.71,14.65,14.65,0,0,1,6.24-1.35,15.1,15.1,0,0,1,5.88,1,16.63,16.63,0,0,1,4.29,2.75,2.91,2.91,0,0,0,3.91-.08,2.3,2.3,0,0,0,.76-1.77,4.3,4.3,0,0,0-.08-.87,2.1,2.1,0,0,0-.34-.73,3,3,0,0,0-.71-.71,21.51,21.51,0,0,0-6.26-3.71,22,22,0,0,0-7.45-1.12,20.88,20.88,0,0,0-8.55,1.74,21.42,21.42,0,0,0-6.88,4.81,22.12,22.12,0,0,0-4.62,7.14,23.19,23.19,0,0,0-1.66,8.79,23.63,23.63,0,0,0,1.66,8.89,22,22,0,0,0,4.62,7.17,21.7,21.7,0,0,0,22.71,5.25A22.53,22.53,0,0,0,1091,271a3,3,0,0,0,.68-1,2.76,2.76,0,0,0,.22-1.09,2.69,2.69,0,0,0-.67-1.94,2.56,2.56,0,0,0-1.66-.79,3,3,0,0,0-2,.65,21,21,0,0,1-4.92,2.73,15.44,15.44,0,0,1-11.66-.34,16,16,0,0,1-5.15-3.69,17.14,17.14,0,0,1-3.46-5.47,18.21,18.21,0,0,1-1.23-6.73,17.9,17.9,0,0,1,1.23-6.65A17.34,17.34,0,0,1,1065.86,241.15Z"/><path class="cls-1" d="M1115.76,244.19a12.4,12.4,0,0,0-6.18,1.57,12.14,12.14,0,0,0-3.26,2.76v-1.18a2.49,2.49,0,0,0-2.81-2.81,2.81,2.81,0,0,0-2.09.73,2.85,2.85,0,0,0-.73,2.08v25.13a2.83,2.83,0,0,0,.73,2.11,2.89,2.89,0,0,0,2.09.7,2.78,2.78,0,0,0,2.1-.73,2.88,2.88,0,0,0,.71-2.08V256.05a5.85,5.85,0,0,1,1.65-4.27,8.89,8.89,0,0,1,4.53-2.31,16,16,0,0,1,6.47.11,3.08,3.08,0,0,0,1.34.06,2.22,2.22,0,0,0,1.1-.53,2.15,2.15,0,0,0,.65-1.21,2.31,2.31,0,0,0-1.27-2.61A9.22,9.22,0,0,0,1115.76,244.19Z"/><path class="cls-1" d="M1146.9,246.24a14.06,14.06,0,0,0-7.53-1.94,15.47,15.47,0,0,0-7.87,2,14.25,14.25,0,0,0-5.37,5.52,16.56,16.56,0,0,0-1.94,8.12,15.67,15.67,0,0,0,2,8.07,14.61,14.61,0,0,0,5.68,5.51,17.19,17.19,0,0,0,13.72,1,15.42,15.42,0,0,0,4.75-2.48,2,2,0,0,0,.9-1.74,2.65,2.65,0,0,0-1-1.85,2.43,2.43,0,0,0-1.72-.59,3.19,3.19,0,0,0-1.82.64,10.88,10.88,0,0,1-3,1.49,10.61,10.61,0,0,1-3.56.65,11.26,11.26,0,0,1-5.68-1.41,10.17,10.17,0,0,1-3.88-3.82,10.33,10.33,0,0,1-1.17-3.54h21.3a2.57,2.57,0,0,0,1.85-.7,2.35,2.35,0,0,0,.73-1.78,17.65,17.65,0,0,0-1.66-7.84A12.63,12.63,0,0,0,1146.9,246.24Zm-13,4.3a10.2,10.2,0,0,1,5.48-1.41,8.23,8.23,0,0,1,7.82,4.81,11.62,11.62,0,0,1,.94,3.46h-18.62a11.84,11.84,0,0,1,.92-3A9.08,9.08,0,0,1,1133.89,250.54Z"/><path class="cls-1" d="M1181.37,246.35a15.29,15.29,0,0,0-7.87-2,15.45,15.45,0,0,0-7.9,2A15.19,15.19,0,0,0,1160,252a15.7,15.7,0,0,0-2,8,16.57,16.57,0,0,0,1.89,8,14.5,14.5,0,0,0,5.14,5.56,14.2,14.2,0,0,0,14.73,0,14.26,14.26,0,0,0,3.49-3.22v2.24a2.87,2.87,0,1,0,5.73,0V259.93a15.6,15.6,0,0,0-2-8A15.26,15.26,0,0,0,1181.37,246.35Zm.79,19a10,10,0,0,1-3.54,3.77,10.2,10.2,0,0,1-10.21,0,9.93,9.93,0,0,1-3.59-3.77,10.8,10.8,0,0,1-1.33-5.37,11,11,0,0,1,1.33-5.43,9.91,9.91,0,0,1,3.59-3.76,10.13,10.13,0,0,1,10.21,0,9.93,9.93,0,0,1,3.54,3.76,11.29,11.29,0,0,1,1.29,5.43A11.1,11.1,0,0,1,1182.16,265.3Z"/><path class="cls-1" d="M1210.61,269.66h-1.91a3.8,3.8,0,0,1-3-1.52,5.8,5.8,0,0,1-1.24-3.77V250.48h4.78a2.68,2.68,0,0,0,1.91-.67,2.19,2.19,0,0,0,.73-1.69,2.34,2.34,0,0,0-.73-1.8,2.68,2.68,0,0,0-1.91-.67h-4.78v-8.1a2.69,2.69,0,0,0-2.81-2.81,2.7,2.7,0,0,0-2.81,2.81v8.1h-2.58a2.72,2.72,0,0,0-1.92.67,2.37,2.37,0,0,0-.73,1.8,2.22,2.22,0,0,0,.73,1.69,2.72,2.72,0,0,0,1.92.67h2.58v13.89a11.88,11.88,0,0,0,1.29,5.57,10.09,10.09,0,0,0,3.55,3.91,9.25,9.25,0,0,0,5.06,1.43h1a3.55,3.55,0,0,0,2.39-.79,2.55,2.55,0,0,0,.93-2,2.94,2.94,0,0,0-.71-2A2.22,2.22,0,0,0,1210.61,269.66Z"/><path class="cls-1" d="M1242,246.29a17.12,17.12,0,0,0-16,0,14.55,14.55,0,0,0-5.49,5.52,17.46,17.46,0,0,0,0,16.19,14.46,14.46,0,0,0,5.49,5.51,17.16,17.16,0,0,0,16.08,0,14.35,14.35,0,0,0,5.45-5.51,17.5,17.5,0,0,0,0-16.19A14.6,14.6,0,0,0,1242,246.29Zm.7,19.1a9.43,9.43,0,0,1-3.51,3.71,10.66,10.66,0,0,1-10.35,0,9.64,9.64,0,0,1-3.54-3.71,12.24,12.24,0,0,1,0-10.94,9.52,9.52,0,0,1,3.54-3.74,10.59,10.59,0,0,1,10.35,0,9.31,9.31,0,0,1,3.51,3.74,12.41,12.41,0,0,1,0,10.94Z"/><path class="cls-1" d="M1273.07,244.19a12.4,12.4,0,0,0-6.18,1.57,12.14,12.14,0,0,0-3.26,2.76v-1.18a2.49,2.49,0,0,0-2.81-2.81,2.81,2.81,0,0,0-2.09.73,2.85,2.85,0,0,0-.73,2.08v25.13a2.83,2.83,0,0,0,.73,2.11,2.89,2.89,0,0,0,2.09.7,2.78,2.78,0,0,0,2.1-.73,2.88,2.88,0,0,0,.71-2.08V256.05a5.85,5.85,0,0,1,1.65-4.27,8.89,8.89,0,0,1,4.53-2.31,16,16,0,0,1,6.47.11,3.12,3.12,0,0,0,1.35.06,2.19,2.19,0,0,0,1.09-.53,2.15,2.15,0,0,0,.65-1.21,2.31,2.31,0,0,0-1.27-2.61A9.22,9.22,0,0,0,1273.07,244.19Z"/><path class="cls-1" d="M1307.53,262.32a8.88,8.88,0,0,0-3.51-3,25.07,25.07,0,0,0-6.66-2.13,27.67,27.67,0,0,1-4.61-1.27,4.54,4.54,0,0,1-2.11-1.46,3.32,3.32,0,0,1-.53-1.83,2.66,2.66,0,0,1,1.71-2.47,9.31,9.31,0,0,1,4.19-.85,12.69,12.69,0,0,1,3.77.51,7.58,7.58,0,0,1,3,1.85,4,4,0,0,0,2.08,1,2.77,2.77,0,0,0,2.14-.39,2.2,2.2,0,0,0,1-1.66,2.65,2.65,0,0,0-.73-1.89,11.31,11.31,0,0,0-4.56-3.26,17.09,17.09,0,0,0-6.58-1.18,16.48,16.48,0,0,0-5.51.93,10.25,10.25,0,0,0-4.33,2.81,6.89,6.89,0,0,0-1.69,4.75,7.09,7.09,0,0,0,2.56,5.51c1.71,1.5,4.45,2.63,8.24,3.37,2.93.53,4.94,1.2,6,2a3.43,3.43,0,0,1,1.61,2.92,3.32,3.32,0,0,1-1.77,2.76,9.51,9.51,0,0,1-5,1.06,11.48,11.48,0,0,1-4.69-.92,9,9,0,0,1-3.07-2,3,3,0,0,0-1.88-1,2.87,2.87,0,0,0-2.22.76,2.66,2.66,0,0,0-1.1,1.88,2.44,2.44,0,0,0,.71,2.05,14,14,0,0,0,5.19,3.07,21.48,21.48,0,0,0,7.29,1.21,15.9,15.9,0,0,0,6.66-1.24,9.51,9.51,0,0,0,4-3.32,8.25,8.25,0,0,0,1.38-4.66A7.27,7.27,0,0,0,1307.53,262.32Z"/><path class="cls-1" d="M376.37,87.64a60.1,60.1,0,0,1,18.76-13.53,53.66,53.66,0,0,1,22.76-4.92q13.32,0,21.42,3.49a60.63,60.63,0,0,1,15.68,10,10.66,10.66,0,0,0,14.25-.31A8.41,8.41,0,0,0,472,76a14.09,14.09,0,0,0-.31-3.18,7.65,7.65,0,0,0-1.23-2.66,11.47,11.47,0,0,0-2.56-2.56Q456.42,58.13,445.05,54t-27.16-4.1a76.15,76.15,0,0,0-31.16,6.35A78.94,78.94,0,0,0,361.61,73.8a81.35,81.35,0,0,0-16.81,26,84.33,84.33,0,0,0-6.05,32.08,85.63,85.63,0,0,0,6.05,32.39,81,81,0,0,0,16.81,26.14,77.27,77.27,0,0,0,56.28,23.68,78.43,78.43,0,0,0,26.55-4.51,82.51,82.51,0,0,0,23.67-13.33,10.87,10.87,0,0,0,2.46-3.59,10.08,10.08,0,0,0,.83-4,9.81,9.81,0,0,0-2.46-7.07,9.26,9.26,0,0,0-6.05-2.88,10.83,10.83,0,0,0-7.28,2.36,76.48,76.48,0,0,1-17.94,9.95,56.28,56.28,0,0,1-42.54-1.24,58.67,58.67,0,0,1-18.76-13.42,62.56,62.56,0,0,1-12.61-20,68.23,68.23,0,0,1,0-48.79A62.45,62.45,0,0,1,376.37,87.64Z"/><path class="cls-1" d="M578,106.39q-12.72-7.26-29.11-7.27-16.61,0-29.32,7.27a52.86,52.86,0,0,0-20,20.1q-7.28,12.81-7.28,29.62,0,16.6,7.28,29.42a52.77,52.77,0,0,0,20,20.09q12.72,7.27,29.32,7.28t29.31-7.28a52.1,52.1,0,0,0,19.89-20.09q7.17-12.81,7.18-29.42,0-16.8-7.28-29.62A52.93,52.93,0,0,0,578,106.39ZM580.54,176a34.34,34.34,0,0,1-12.81,13.53,38.61,38.61,0,0,1-37.72,0A35.11,35.11,0,0,1,517.09,176a40.78,40.78,0,0,1-4.72-19.89,41.4,41.4,0,0,1,4.72-20A34.9,34.9,0,0,1,530,122.49a38.61,38.61,0,0,1,37.72,0,34.15,34.15,0,0,1,12.81,13.63,42,42,0,0,1,4.61,20A41.42,41.42,0,0,1,580.54,176Z"/><path class="cls-1" d="M667.89,191.57h-5.12q-4.51,0-7.38-4.91t-2.87-12.51V62.22a10.25,10.25,0,1,0-20.5,0V174.15a46.52,46.52,0,0,0,3.89,19.58,32.69,32.69,0,0,0,10.87,13.43,27,27,0,0,0,16,4.92h.41a16.55,16.55,0,0,0,10.05-2.87,8.8,8.8,0,0,0,3.89-7.38,10.69,10.69,0,0,0-2.56-7.38A8.56,8.56,0,0,0,667.89,191.57Z"/><path class="cls-1" d="M729.5,191.57h-5.13q-4.51,0-7.38-4.91t-2.87-12.51V62.22a10.25,10.25,0,1,0-20.5,0V174.15a46.52,46.52,0,0,0,3.9,19.58,32.59,32.59,0,0,0,10.86,13.43,27,27,0,0,0,16,4.92h.41a16.55,16.55,0,0,0,10.05-2.87,8.8,8.8,0,0,0,3.89-7.38,10.64,10.64,0,0,0-2.56-7.38A8.53,8.53,0,0,0,729.5,191.57Z"/><path class="cls-1" d="M1005.31,155.9a56.55,56.55,0,0,1-7.5,29.1A57.62,57.62,0,0,1,920,205.43,55.1,55.1,0,0,1,899.93,185c-.37-.65-.73-1.31-1.08-2a14.53,14.53,0,0,1,3-17.07c4-3.91,7.55-7.57,10.63-10.92v.86a40.9,40.9,0,0,0,4.71,19.67,35.1,35.1,0,0,0,13,13.84,36.67,36.67,0,0,0,37.21,0,36.35,36.35,0,0,0,13-13.84,39.76,39.76,0,0,0,4.82-19.67,39.19,39.19,0,0,0-4.82-19.66,36.88,36.88,0,0,0-13-13.64,34.63,34.63,0,0,0-18.66-5c-9.52.1-15,3.65-30.31,20-8.87,9.47-25.65,29.95-55.2,50.79v13.48a10.23,10.23,0,0,1-3,7.5,11,11,0,0,1-15,0,10.23,10.23,0,0,1-3-7.5v-.61c-10.44,5.47-21.34,9.53-32.19,11.2a.18.18,0,0,0-.15.05c-1,.15-2.08.31-3.14.41v-.2c-1.32.1-2.69.25-4.06.25a49.54,49.54,0,0,1-26.86-7.5,53.12,53.12,0,0,1-18.76-20.28,60.28,60.28,0,0,1-6.89-29,56.68,56.68,0,0,1,7.5-29.1A55.1,55.1,0,0,1,778,106.64a58.86,58.86,0,0,1,57.54,0A55.21,55.21,0,0,1,855.73,127a56,56,0,0,1,7.2,22.66h0a13.94,13.94,0,0,1-5.59,12.52,149.26,149.26,0,0,1-16.93,11.09c2.46-4.75,2.7-15,2.7-17.17a40.91,40.91,0,0,0-4.72-19.77,35.55,35.55,0,0,0-12.92-13.74,34.88,34.88,0,0,0-18.65-5,35.44,35.44,0,0,0-18.56,5,35.92,35.92,0,0,0-13.07,13.74,39.9,39.9,0,0,0-4.87,19.77,39.24,39.24,0,0,0,4.87,19.56,35.92,35.92,0,0,0,13.07,13.74,34.93,34.93,0,0,0,18.56,5.07v0s30.56,2.53,85.51-53.68V62.44a10.15,10.15,0,0,1,3-7.61,10.47,10.47,0,0,1,7.5-2.84,9.85,9.85,0,0,1,10.44,10.45v55.35c12.89-14.17,25.51-18.71,39.54-18.66a49.4,49.4,0,0,1,26.86,7.51,52.32,52.32,0,0,1,18.76,20.27Q1005.34,139.69,1005.31,155.9Z"/><path class="cls-2" d="M1045.26,54.63a13.66,13.66,0,0,0-13.53,13.53,13.53,13.53,0,1,0,23.06-9.53A13,13,0,0,0,1045.26,54.63Z"/><path class="cls-2" d="M1045.26,99.94a10.34,10.34,0,0,0-7.48,2.87,10,10,0,0,0-3,7.58v91.23a10.64,10.64,0,0,0,18,7.48,10.32,10.32,0,0,0,2.87-7.48V110.39a9.86,9.86,0,0,0-10.45-10.45Z"/><path class="cls-2" d="M1159.59,153.86q-8.92-4.73-24.3-7.8a97.74,97.74,0,0,1-16.81-4.61q-5.74-2.35-7.69-5.33a11.86,11.86,0,0,1-1.94-6.66q0-5.94,6.25-9a34.38,34.38,0,0,1,15.27-3.08,46.48,46.48,0,0,1,13.74,1.85,28,28,0,0,1,11.07,6.77,14.63,14.63,0,0,0,7.58,3.68,10,10,0,0,0,7.79-1.43,7.94,7.94,0,0,0,3.49-6,9.48,9.48,0,0,0-2.67-6.87,41,41,0,0,0-16.6-11.89,62.6,62.6,0,0,0-24-4.3,60.32,60.32,0,0,0-20.09,3.38,37.48,37.48,0,0,0-15.79,10.25q-6.14,6.87-6.14,17.33,0,11.88,9.32,20.09t30,12.3q16,2.86,22,7.37t5.84,10.67q-.21,6.15-6.46,10t-18.14,3.9a42.16,42.16,0,0,1-17.12-3.38q-7.69-3.39-11.17-7.28a11.12,11.12,0,0,0-6.87-3.59q-4-.51-8.1,2.77a9.87,9.87,0,0,0-4,6.86,9,9,0,0,0,2.57,7.49q6.76,6.77,19,11.17a77.52,77.52,0,0,0,26.55,4.41q14.55,0,24.29-4.51t14.76-12.1a30.08,30.08,0,0,0,5-17,26.75,26.75,0,0,0-3.89-14.46Q1168.5,158.58,1159.59,153.86Z"/><path class="cls-2" d="M1302.15,122.7A43.59,43.59,0,0,0,1284.52,105a52.35,52.35,0,0,0-25.32-6,50,50,0,0,0-24.39,5.94,46.88,46.88,0,0,0-10.46,7.79V62.42a10.66,10.66,0,0,0-17.94-7.58,10.05,10.05,0,0,0-3,7.58V201.83a10.66,10.66,0,0,0,18,7.48,10.34,10.34,0,0,0,2.87-7.48V144a22.74,22.74,0,0,1,4.1-13.43,29.18,29.18,0,0,1,11.07-9.33,34.41,34.41,0,0,1,15.58-3.49,37.33,37.33,0,0,1,16.71,3.59,27.11,27.11,0,0,1,11.58,11q4.3,7.38,4.31,19.07v50.43a10.46,10.46,0,1,0,20.91,0V151.4Q1308.61,134.39,1302.15,122.7Z"/></svg>
